<svg xmlns="http://www.w3.org/2000/svg" height="800" width="1200" version="1.0" viewBox="-22.500015 -14.4468 195.00013 86.6808"><path fill="#FFF" d="M142.9828 11.452c.6908-.9315 1.281-1.8314 1.774-2.7001v.0628c.4615-1.0047 1.1397-1.6066 2.0408-1.8054 1.234-.2197 2.223.34 2.967 1.6798.1476.2408.2261.518.2355.832 0 .2198-.0565.4656-.1727.7378-1.0675 2.0619-2.5902 4.0085-4.5683 5.84 1.0142.5965 1.9059 1.3971 2.6688 2.4018.2198.293.3297.6176.3297.9733 0 .3768-.11.7118-.3297 1.0047-.314.45-.7692.675-1.3658.675 1.4443 1.9363 2.2355 4.2283 2.3705 6.876l.1256 2.135c.1162 2.471.3203 4.7787.6123 6.9232l.0313.2354c0 .7755-.4458 1.2779-1.3343 1.5071-.8697.1664-1.4851-.135-1.8525-.9105-.157-.2512-1.036-1.0895-2.6373-2.5118l-1.7583-1.6013-.047.11c-.6688 3.3594-2.584 6.7566-5.7458 10.1883-2.27 2.449-3.821 4.0095-4.6467 4.6782-.628.5118-1.2716.5432-1.931.0942-.5117-.336-.7692-.7912-.7692-1.3658l.0628-.4081.4082-1.46c.4803-1.5918.7284-3.1303.7378-4.6154l-.1413-2.5746c-.157-1.821-.2355-3.0863-.2355-3.799 0-.471.0471-1.2182.1413-2.245-3.9246 2.1759-8.7284 2.9671-14.4113 2.3706l-.2983-.0314-6.1381-.2983c-.9828-.0094-1.5322-.5118-1.6484-1.507v-.1728c0-.9105.4616-1.4442 1.3815-1.6012l2.4019-1.0675c1.9152-1.2035 3.7425-2.9724 5.4788-5.3061.4396-.5652.9639-1.1043 1.5699-1.617 1.2653-1.1093 2.6907-1.9884 4.27-2.6374-2.135-1.1617-3.9027-2.5745-5.3062-4.2386-2.2072-2.3651-4.7158-3.9821-7.5196-4.8509-.7755-.2722-1.1617-.7952-1.1617-1.5698l.0314-.2669c.1476-.9315.6908-1.3972 1.6327-1.3972l9.9215.1256c2.6687-.0417 5.2433.3297 7.7237 1.1146-.336-1.036-.5903-2.0512-.7692-3.0455-.157-1.0258-.7787-2.2867-1.8682-3.7834-.2103-.293-.314-.6122-.314-.9576 0-.4081.1476-.7902.4396-1.146.65-.5965 1.3501-.6855 2.1036-.2669 0 .1152 1.0361.696 3.1084 1.7426l.4081.204c3.6955 1.8211 6.2104 3.8566 7.551 6.1068.1476-.2198.267-.3507.3611-.3924.5118-.3664 1.0738-.4029 1.6798-.11 1.1522.628 1.9529 1.8421 2.4018 3.6421zm-2.0408 4.4427c.7755-1.8.8226-3.4483.1413-4.945l-1.2716-1.664c.1664 2.0511-.2574 3.4012-1.2716 4.0502-.3673-2.7002-1.529-4.919-3.485-6.6562-1.0048-.8895-2.741-1.957-5.212-3.2025l-3.2653-1.8054c1.2025 1.643 1.9247 3.124 2.1664 4.4427.5557 3.2757 1.507 5.6569 2.8572 7.1429-2.6594-2.2817-6.4616-3.3595-11.413-3.234l-9.9842-.1412c3.1617.9837 5.912 2.7472 8.2574 5.2904 1.978 2.292 4.4176 3.9614 7.3156 5.0079 1.35.492 2.5275.7849 3.5322.879-3.1084-.178-5.9027.5442-8.383 2.1665l-2.873 2.5275c-1.9874 2.6477-4.0721 4.6207-6.248 5.9183l-2.7001 1.1303 6.609.314c5.4318.5746 9.975-.182 13.6265-2.2763 1.8304-1.0257 3.1146-2.1193 3.8461-3.281-.9827 1.6744-1.5384 3.6053-1.664 5.7928-.0722 1.0361-.0063 2.8728.204 5.5102.1665 2 .11 3.7268-.1726 5.1805-.157.8383-.4616 1.9843-.9106 3.438.763-.5871 2.2512-2.0879 4.4585-4.5055 2.9513-3.193 4.741-6.3108 5.3689-9.3563.336-1.6955.3924-3.2443.1727-4.6468l-.4396-1.6013c.7316 2.313 1.8273 4.1507 3.281 5.5102 3.0047 2.7316 4.515 4.2135 4.5369 4.4427-.2732-1.9874-.518-5.0643-.7378-9.2307-.135-2.449-.9011-4.5526-2.292-6.3109l-2.0408-1.931c.8383-.7848 2.0502-.9 3.642-.3453-.9639-1.3187-2.0973-2.1403-3.4066-2.4647l-1.7111-.1098c3.0455-1.9153 5.328-4.3853 6.8446-7.4098-.471-.8687-.967-1.1146-1.4914-.7378l-.6436.8006c-1.2653 2.1875-2.5212 3.8933-3.7677 5.1178zm-18.8069 24.537l1.5699-3.6735c.2825-.6688.7943-1.0047 1.5384-1.0047h2.5746c.5965 0 1.0518.2449 1.3658.7378.3234.5024.3673 1.0267.1256 1.5699l-6.6405 15.5259c-1.099 2.314-2.27 3.6515-3.5165 4.0188-.8886.2418-1.7677.2418-2.6374 0-.8885-.2103-1.3344-.744-1.3344-1.6012V54.262c-.0094-.9827.4647-1.529 1.4286-1.6326l.5495-.1413c.0847-.0628.2135-.3203.3924-.7692l.8634-2.0723-2.6687-7.755-.0314.047c-.3988.3234-.854.4333-1.3658.3297-.7221-.157-1.325-.0565-1.8053.2983-.4302.2606-.697.7849-.8007 1.5698v6.6562c0 .4616-.179.8697-.5337 1.2245-.4082.314-.832.4616-1.2716.4396l-3.1083-.2669c-1.0267-.1162-1.5385-.6688-1.5385-1.664v-3.5793l-.0628.1256c-.65 1.3186-1.5761 2.314-2.7786 2.9827-1.1617.6593-2.5432.9953-4.1445 1.0047-1.5792-.0094-2.9607-.336-4.1444-.9733-.6813-.3987-1.2716-.8885-1.774-1.4757v.8007c0 .7127-.3076 1.215-.9262 1.507-.336.157-.9042.314-1.7111.471-1.5385.1978-2.8509-.0157-3.9404-.6437-.9638-.5337-1.6483-1.2872-2.0565-2.2606-.3548.8697-.9042 1.6578-1.6483 2.3705-1.5165 1.4663-3.7363 2.1664-6.6562 2.1036-1.8744-.0722-3.7771-.5557-5.7143-1.4442-.449-.2104-.7379-.5244-.8634-.942-1.3595.964-2.9985 1.4443-4.9137 1.4443-1.3595 0-2.584-.2574-3.6735-.7692-1.0769-.493-1.9937-1.2245-2.7472-2.1978l-.6908-1.0518v4.3328c-.0094 1.1083-.5714 1.664-1.6797 1.664H52.135c-1.099 0-1.6484-.5557-1.6484-1.664v-3.9874c-.2826.5557-.6374 1.0769-1.0675 1.5698-1.2967 1.5165-2.8885 2.3234-4.7724 2.4176-.6499.022-1.35-.0942-2.1036-.3454v4.0503c-.0094 1.1083-.5589 1.664-1.6483 1.664h-3.0613c-1.0989 0-1.6483-.5557-1.6483-1.664v-2.3705l-.4239.1256-2.0408.2668c-.8477 0-1.5856-.157-2.2135-.471-.0848-.0219-.2606-.1412-.5338-.361-.9105.5557-2.0879.832-3.5321.832-1.7897 0-3.2079-.6122-4.2544-1.8367l-.3767-.5337c-.2512.4929-.7482.7378-1.4914.7378h-3.0455c-1.1093 0-1.664-.5432-1.664-1.6327V42.504l-1.57 2.81c-.2929.5746-.7745.8634-1.4442.8634h-2.967c-.649 0-1.1407-.2888-1.4757-.8634l-1.3344-2.5745v8.0533c0 1.0895-.5441 1.6327-1.6327 1.6327H3.1083c-1.0884 0-1.6326-.5432-1.6326-1.6327V34.9842l-.2983-.1098C.3924 34.6012 0 34.08 0 33.3044l.4082-1.7581c.2407-.8267.7744-1.2402 1.6012-1.2402h5.7457c.6907-.0104 1.1827.2982 1.4757.9262l3.4066 6.7504 1.8367-3.2967c-.5862-.3674-.8791-.8383-.8791-1.4129l.047-.361.3298-1.3345c.2197-.8477.7535-1.2715 1.6012-1.2715h5.7457c1.1093 0 1.664.5548 1.664 1.664V45.471c.2826-.3862.628-.7535 1.0362-1.0989.0628-.0722.2772-.2104.6436-.4082-.335-.0408-.6019-.1193-.8006-.2354-.5441-.314-.811-.7787-.8007-1.3972v-2.3077c-.0103-.7535.3558-1.2653 1.099-1.5385 1.643-.628 3.302-.9356 4.9764-.9262 1.1093 0 2.113.157 3.0141.471.9953.3453 1.8054.92 2.4333 1.7268l.0942.1413v-.1099l.0785-.4238.3297-1.3344c.2198-.8258.7535-1.2402 1.6012-1.2402h4.2073c.449 0 .832.157 1.146.471.8383-.4082 1.7048-.6123 2.606-.6123 1.843.022 3.4316.8006 4.7723 2.339.4301.493.785 1.0205 1.0675 1.5856v-2.7786l-.3297-.1099c-.7849-.2732-1.1774-.7943-1.1774-1.5699l.4082-1.7268c.2198-.8257.7535-1.2402 1.6013-1.2402h4.1758c1.1083 0 1.6703.5432 1.6797 1.6327v3.9403c.4082-.7221.9325-1.3752 1.5699-1.9623 1.35-1.234 3.0392-1.8462 5.0706-1.8367 2.5024-.0095 4.3423.7912 5.526 2.4018l-.0785-1.0675c0-1.8524.6216-3.3909 1.868-4.6154 1.4224-1.3604 3.4538-2.004 6.0911-1.9309 1.686.021 3.3658.3871 5.0393 1.099.6688.2825 1.0047.7943 1.0047 1.5384v2.9513l.361-.047v-1.0048c0-.8697.424-1.4034 1.2717-1.6012l3.0455-.7379c.5557-.1162 1.0298-.0157 1.4286.2983.3987.3548.6028.7912.6122 1.303v1.7425h.8948c1.1083 0 1.6704.5432 1.6798 1.6327v.6907c.5243-.6687 1.168-1.2245 1.9309-1.664 1.1837-.6688 2.5652-.9985 4.1444-.989 1.6233-.0095 3.0047.3202 4.1445.989.7221.3987 1.3343.9042 1.8367 1.5227.2732-.5651.763-.8477 1.4757-.8477h4.3014c.3768 0 .7221.1193 1.036.361 1.0896-.5557 2.3015-.7943 3.6422-.722.314-.314.7158-.471 1.2088-.471h3.4694c.8069 0 1.328.3767 1.5698 1.1303zm-7.4568-1.6484l-.2983-.8634-.0314-.0628c-1.9874-.0094-3.416.7315-4.2857 2.2292v-1.8681h-4.3014l-.3454 1.3343 1.5385.5024v10.471l3.1083.2668v-6.8289c.2731-1.7582 1.1209-2.8477 2.5432-3.2653l2.0722-.0628zm1.2716-1.3972l4.2386 12.292-1.099 2.6845c-.4709 1.1303-1.2181 1.7645-2.2448 1.8995v1.7426l1.8367.0314c.7755-.2292 1.6013-1.2779 2.4804-3.1398l6.6562-15.5102h-2.5746l-3.3124 7.7237-2.5117-7.7237zm-11.46 5.6201c0-1.2025-.245-2.3296-.7379-3.3752-.471-.9639-1.171-1.7205-2.1036-2.2763-.8885-.5431-2.0031-.81-3.3438-.8006-1.2967-.0094-2.4113.2575-3.3438.8006-.9325.5558-1.6326 1.3124-2.1036 2.2763-.471.9953-.7064 2.1193-.7064 3.3752 0 1.2465.2449 2.3611.7378 3.3438.471 1.0142 1.1711 1.7677 2.1036 2.2606.9105.5338 2.0157.8007 3.3124.8007 1.2873 0 2.402-.267 3.3438-.8007.8886-.493 1.5919-1.2464 2.1036-2.2606.493-1.058.7379-2.1727.7379-3.3438zm-29.8117-8.7598c.5746-.5118 1.391-.7378 2.449-.675 1.4443.0408 2.8352.5902 4.1758 1.6483V32.347c-1.4976-.628-2.9921-.963-4.4898-1.0047-2.135-.0525-3.7582.449-4.8665 1.507-.92.9106-1.3815 2.0471-1.3815 3.4066 0 1.0895.314 2.066.942 2.9357.6184.8477 1.821 1.7959 3.6106 2.8414l1.2716.7379c1.2245.7127 1.9843 1.2872 2.2763 1.7268.3045.449.4552.989.4552 1.617 0 .7535-.2888 1.4191-.8634 1.9937-.6499.628-1.6954.9105-3.1397.8477-1.8116-.0942-3.369-.7535-4.6782-1.978v3.0455c1.7363.7944 3.4286 1.2308 5.0707 1.303 2.427.0408 4.2449-.5086 5.4474-1.6484 1.1083-1.1083 1.6703-2.4113 1.6797-3.909 0-1.0894-.2763-2.0564-.832-2.9042-.5651-.8697-1.8587-1.8838-3.8775-3.0455l-1.3344-.8006c-1.2151-.6688-1.9718-1.2245-2.2763-1.664-.314-.449-.471-.9169-.471-1.3972 0-.6688.2763-1.2402.832-1.7112zm-11.193 2.3391c-1.6013 0-2.9137.4647-3.9404 1.3972-1.4443 1.3187-2.1664 3.124-2.1664 5.416-.0094 1.8524.4647 3.4003 1.4286 4.6468.6185.7755 1.328 1.328 2.135 1.664.9105.4176 1.9152.6343 3.0141.6437 1.7582 0 3.1491-.4459 4.1758-1.3344v-2.2763l-1.0989.8006c-1.1397.6908-2.2857.9043-3.438.6437-.5651-.135-1.0455-.383-1.4442-.7379-.65-.606-1.0832-1.3563-1.303-2.2449l1.0675-.0314c1.642-.0628 3.1711-.496 4.584-1.303l.8634-.675c.292-.2731.54-.6185.7378-1.0361.1978-.471.2983-.9953.2983-1.5699 0-.7315-.179-1.3877-.5338-1.9623-.8257-1.3595-2.2857-2.0408-4.3799-2.0408zm1.8053 4.6782c-.1162.4615-.336.8257-.6594 1.0989l-.047.0314c-.8886.763-2.223 1.0895-4.0032.9733l-.0314-1.0675c.1036-1.0675.339-1.8776.7064-2.4333.3988-.5651.8729-.9105 1.4286-1.0361.8477-.2104 1.5385-.0408 2.0722.5024.5338.5023.7127 1.146.5338 1.9309zm-1.6327-.361l.0314-.1414c0-.135-.0314-.226-.0942-.2668-.1161-.1162-.292-.135-.5337-.0628-.135 0-.2826.1193-.4396.361-.179.292-.2763.5589-.2983.8007.6374-.157 1.0361-.314 1.1931-.471.0942-.0408.1413-.1162.1413-.2198zm3.6735 4.3641c-1.0047.606-2.1507 1.0299-3.438 1.2716l.0942.0314c.6688.179 1.3909.0251 2.1664-.4552l.9733-.675c.5746-.4177 1.1554-.4616 1.7426-.1257.2197.0942.4018.2198.5494.3768l.3768-.2198c.6499-.292 1.2402-.1947 1.774.2983.9826.9105 2.1883 1.4223 3.6106 1.5384.9639.0409 1.6107-.0879 1.9466-.3924.2418-.2292.361-.4961.361-.8006 0-.2732-.069-.4961-.204-.675 0-.179-.5746-.5904-1.7268-1.2403l-1.2716-.7378c-1.9875-1.1617-3.3595-2.2512-4.113-3.2653L70 39.945l.0314.6436c0 .8258-.132 1.5636-.3925 2.2135-.2732.6374-.653 1.1837-1.146 1.6327zm-16.672-9.1523l1.4758.471v15.7457h3.0298v-17.551H50.989zm37.3628-2.606l-3.077.738v2.6373h-1.5698v2.339h1.5698V43.54c0 1.799.0314 2.9262.0942 3.3752.179 1.0895.7127 1.89 1.6013 2.4019.7849.4395 1.7331.587 2.8414.4395l1.2716-.3453v-1.931l-.8948.1256-.8477-.1256c-.2418-.0942-.4302-.2198-.5652-.3767-.2606-.2606-.4019-.7285-.4238-1.3972v-6.4835h2.5274v-2.3391h-2.5274zm2.4646 9.4977c0-.744.0722-1.4442.2198-2.1036h-1.0518v4.741l.0314.2983h.2355l.3924-.0628.6123.0157c-.292-.9011-.4396-1.8619-.4396-2.8886zm9.2151 0c0-1.0047-.179-1.843-.5337-2.5117-.2198-.3548-.5087-.5338-.8635-.5338s-.6342.179-.832.5338c-.3673.6279-.5432 1.4662-.5337 2.5117 0 1.0361.1664 1.8682.5023 2.4961h.0314c.179.336.4553.5024.832.5024.3548 0 .6437-.1664.8635-.5024.3547-.6688.5337-1.5008.5337-2.496zm-4.4427 0c0-1.3187.2575-2.4238.7692-3.3124.5118-.92 1.2716-1.3752 2.2763-1.3658 1.0047-.0094 1.774.4459 2.3077 1.3658.4804.8477.7284 1.953.7379 3.3124-.0095 1.3501-.2575 2.449-.7379 3.2967-.5337.9106-1.303 1.372-2.3077 1.3815-1.0047-.0094-1.7645-.471-2.2763-1.3815-.5117-.8885-.7692-1.9874-.7692-3.2967zM81.7269 39.223v-2.402c-.5432.179-1.0424.0785-1.4914-.2983-.9827-.8257-2.047-1.2622-3.1868-1.303-.5965-.0314-1.0298.0565-1.303.2669-.179.157-.2668.314-.2668.471 0 .1255.069.2763.204.4552l1.7112 1.1774 1.3658.8006c2.292 1.3093 3.774 2.5118 4.4427 3.6107l.0942.157v-1.303c-1.0456-.0408-1.5699-.5871-1.5699-1.6326zm-66.4836-5.9184h.0314l1.5385.5023-4.2543 7.7238L7.755 31.97H2.0094l-.3296 1.3344 1.4285.471v17.0172h3.077V36.1145l4.4427 8.3831h2.967l4.6782-8.4145v14.7096h3.0455V31.9701H15.573zm25.6516 7.0173v-1.8682h-4.2073l-.3296 1.3344 1.4756.471v15.777h3.0613v-6.9544c1.1083 1.1083 2.3328 1.6326 3.6734 1.5698 1.4223-.0627 2.6374-.675 3.6421-1.8367 1.0047-1.1837 1.507-2.6217 1.507-4.3171 0-1.6955-.5023-3.1397-1.507-4.3328-.9733-1.2025-2.1727-1.8273-3.595-1.8682-1.3187-.0094-2.4427.5118-3.3752 1.57zm2.9513 1.8053c-.807 0-1.2308.8163-1.2716 2.449-.0094.6593.1319 1.2496.4239 1.774.2731.4395.5431.6593.8163.6593.2826 0 .5494-.2198.8006-.6594.2826-.4929.4239-1.0832.4239-1.774.022-.901-.2104-1.6263-.6908-2.182-.2511-.179-.4175-.2669-.5023-.2669zm-2.0408-.4239c.5557-.8069 1.2339-1.2087 2.0408-1.2087.7943 0 1.4757.4018 2.0408 1.2087.5557.7944.832 1.752.832 2.8729 0 1.1303-.2763 2.0973-.832 2.9042-.5871.7755-1.2779 1.1617-2.0722 1.1617-.807 0-1.4851-.3987-2.0408-1.193-.5652-.807-.8477-1.7646-.8477-2.873 0-1.1396.292-2.0972.879-2.8728zm-17.1115.5652c1.3083-.7441 2.5903-1.1083 3.8462-1.099.6907-.0093 1.2455.1194 1.664.3926.493.314.7159.8163.675 1.507v1.2402h-.9733c-2.2292 0-3.8304.4239-4.8037 1.2716-.9837.7943-1.4757 1.774-1.4757 2.9356 0 1.0675.2772 1.9247.832 2.5746.6908.8163 1.6851 1.2308 2.9828 1.2402 1.4653.0408 2.5902-.3046 3.3752-1.0361l.3296-.3768c.2606.5558.606.92 1.0361 1.099.3988.1977.9105.3045 1.5385.3139l1.6954-.2355v-1.7425l-.471-.0314c-.3767-.1162-.6436-.3046-.8005-.5652-.157-.2292-.2292-.5557-.2198-.9733v-5.6829c-.0094-1.0895-.226-1.8775-.6437-2.3705-.3987-.5117-.9639-.9168-1.6954-1.2088-.6688-.2197-1.486-.3296-2.449-.3296-1.4967 0-2.9774.2574-4.4427.7692zm11.4914-.8006l-.3297-.11c-.2292-.0721-.4176-.1663-.5651-.2825.1978.606.2982 1.303.2982 2.088 0 3.1805-.022 5.0549-.0628 5.62l.6594.1727zm-5.3062 4.6781c.2198 2.157-.3516 3.4694-1.7111 3.9404l-.6593.0942c-.45 0-.8635-.1193-1.2402-.361-.293-.2293-.492-.5181-.5966-.8635-.136-.3862-.1516-.7787-.047-1.1774.178-.6688.6696-1.1617 1.4756-1.4757.806-.314 1.7322-.3673 2.7786-.157zm4.6154 2.8101l-.1099.6593c.1162-.2197.1727-.4301.1727-.6279zm-7.2841-.5808l.0314.1412.2669.0942.1255-.0314c.157-.022.314-.2668.471-.7378-.5548.157-.8424.292-.8634.4082z"/><path fill="#c1170c" d="M141.0833 10.9497c.6813 1.4967.6342 3.145-.1413 4.945l1.4757-1.193c1.2465-1.2245 2.5024-2.9303 3.7677-5.1178l.6436-.8006c.5243-.3768 1.0204-.131 1.4914.7378-1.5165 3.0245-3.799 5.4945-6.8446 7.4098l1.7111.1098c1.3093.3244 2.4427 1.146 3.4066 2.4647-1.5918-.5548-2.8037-.4395-3.642.3454l2.0408 1.931c1.3909 1.7582 2.157 3.8618 2.292 6.3108.2197 4.1664.4646 7.2433.7378 9.2307-.022-.2292-1.5322-1.7111-4.5369-4.4427-1.4537-1.3595-2.5494-3.1971-3.281-5.5102l.4396 1.6013c.2197 1.4025.1632 2.9513-.1727 4.6468-.628 3.0455-2.4176 6.1632-5.369 9.3563-2.2072 2.4176-3.6954 3.9184-4.4584 4.5055.449-1.4537.7536-2.5997.9106-3.438.2825-1.4537.339-3.1805.1727-5.1805-.2104-2.6374-.2763-4.4741-.2041-5.5102.1256-2.1875.6813-4.1184 1.664-5.7928-.7315 1.1617-2.0157 2.2553-3.8461 3.281-3.6515 2.0942-8.1947 2.8509-13.6264 2.2763l-6.6091-.314 2.7001-1.1303c2.1759-1.2976 4.2606-3.2706 6.248-5.9183.5432-.7203 1.3815-1.3322 2.4177-2.0722 2.4803-1.6223 5.73-2.7997 8.8383-2.6217-1.0047-.0942-2.1821-.3871-3.5322-.8791-2.898-1.0465-5.3375-2.7159-7.3156-5.0079-2.3453-2.5432-5.0957-4.3067-8.2574-5.2904l9.9843.1413c4.9513-.1256 8.7535.9522 11.4129 3.2339-1.3501-1.486-2.3015-3.8672-2.8572-7.1429-.2417-1.3187-.9639-2.7997-2.1664-4.4427l3.2653 1.8054c2.471 1.2455 4.2072 2.313 5.212 3.2025 1.956 1.7372 3.1177 3.956 3.485 6.6562 1.0142-.649 1.438-1.999 1.2716-4.0503z"/><path fill="#020000" d="M114.6783 37.8665v2.7692l-2.0722.0628c-1.4223.4176-2.27 1.5071-2.5432 3.2653v6.829l-3.1083-.0409V40.055l-1.5385-.5024.3454-1.3343h4.3014v1.868c.8697-1.4976 2.2983-2.2385 4.2857-2.2291zm5.5102 11.8116l-4.2386-12.292h3.4694l2.5117 7.7237 3.3124-7.7237h2.5746l-6.6562 15.5102c-.8791 1.8619-1.7049 2.9106-2.4804 3.1398l-1.8367-.0314V54.262c1.0267-.135 1.774-.7692 2.2449-1.8995zm-16.4365-10.047c.493 1.0455.7379 2.1726.7379 3.3751 0 1.1711-.245 2.2857-.7379 3.3438-.5117 1.0142-1.215 1.7677-2.1036 2.2606-.9419.5338-2.0565.8007-3.3438.8007-1.2967 0-2.4019-.267-3.3124-.8007-.9325-.493-1.6326-1.2464-2.1036-2.2606-.493-.9827-.7378-2.0973-.7378-3.3438 0-1.2559.2355-2.3799.7064-3.3752.471-.9639 1.1711-1.7205 2.1036-2.2763.9325-.5431 2.0471-.81 3.3438-.8006 1.3407-.0094 2.4553.2575 3.3438.8006.9325.5558 1.6327 1.3124 2.1036 2.2763zm-26.6248-6.0597c-1.058-.0628-1.8744.1632-2.449.675-.5557.471-.832 1.0424-.832 1.7112 0 .4803.157.9482.471 1.3971.3045.4396 1.0612.9953 2.2763 1.664l1.3344.8007c2.0188 1.1617 3.3124 2.1758 3.8775 3.0455.5557.8478.832 1.8148.832 2.9043-.0094 1.4976-.5714 2.8006-1.6797 3.909-1.2025 1.1397-3.0204 1.6891-5.4474 1.6483-1.6421-.0722-3.3344-.5086-5.0707-1.303V46.978c1.3093 1.2245 2.8666 1.8838 4.6782 1.978 1.4443.0628 2.4898-.2198 3.1397-.8477.5746-.5746.8634-1.2402.8634-1.9937 0-.628-.1507-1.168-.4552-1.617-.292-.4396-1.0518-1.0141-2.2763-1.7268l-1.2716-.7379c-1.7896-1.0455-2.9922-1.9937-3.6107-2.8414-.628-.8697-.9419-1.8462-.9419-2.9357 0-1.3595.4615-2.496 1.3815-3.4066 1.1083-1.058 2.7315-1.5595 4.8665-1.507 1.4977.0417 2.9922.3767 4.4898 1.0047v2.8728c-1.3406-1.058-2.7315-1.6075-4.1758-1.6483zm-17.5824 4.4113c1.0267-.9325 2.339-1.3972 3.9403-1.3972 2.0942 0 3.5542.6813 4.38 2.0408.3547.5746.5337 1.2308.5337 1.9623 0 .5746-.1005 1.099-.2983 1.5699-.1978.4176-.4458.763-.7378 1.0361l-.8634.675c-1.4129.807-2.942 1.2402-4.584 1.303l-1.0675.0314c.2198.8886.653 1.639 1.303 2.245.3987.3547.879.6028 1.4442.7378 1.1523.2606 2.2983.047 3.438-.6437l1.099-.8006v2.2763c-1.0268.8885-2.4177 1.3344-4.1759 1.3344-1.099-.0094-2.1036-.226-3.0141-.6437-.807-.336-1.5165-.8885-2.135-1.664-.964-1.2465-1.438-2.7944-1.4286-4.6468 0-2.292.7221-4.0973 2.1664-5.416zm5.0863 4.3799c.3234-.2732.5432-.6374.6594-1.099.179-.7848 0-1.4285-.5338-1.9308-.5337-.5432-1.2245-.7128-2.0722-.5024-.5557.1256-1.0298.471-1.4286 1.0361-.3673.5557-.6028 1.3658-.7064 2.4333l.0314 1.0675c1.7802.1162 3.1146-.2104 4.0031-.9733zm-12.496-5.7771l-1.4757-.471.3297-1.3343h4.1758v17.551H52.135zm32.81-2.339l3.077-.738v3.3753h2.5274v2.339h-2.5274v6.4836c.022.6687.1632 1.1366.4238 1.3972.135.157.3234.2825.5652.3767l.8477.1256.8948-.1256v1.931l-1.2716.3453c-1.1083.1476-2.0565 0-2.8414-.4395-.8886-.5118-1.4223-1.3124-1.6013-2.402-.0628-.4489-.0942-1.576-.0942-3.3751v-4.3171h-1.5698v-2.3391h1.5698zm11.0832 5.4473c-.5117.8886-.7692 1.9937-.7692 3.3124 0 1.3093.2575 2.4082.7692 3.2967.5118.9106 1.2716 1.372 2.2763 1.3815 1.0047-.0094 1.774-.471 2.3077-1.3815.4804-.8477.7284-1.9466.7379-3.2967-.0095-1.3595-.2575-2.4647-.7379-3.3124-.5337-.92-1.303-1.3752-2.3077-1.3658-1.0047-.0094-1.7645.4459-2.2763 1.3658zm-80.7536-6.3893h-.0314l.3297-1.3344h5.7457v18.8226h-3.0455V36.0831l-4.6782 8.4145h-2.967l-4.4428-8.383v14.6781H3.1083V33.7755l-1.4285-.471.3296-1.3344h5.7457l4.8038 9.5605 4.2543-7.7238zm25.6202 5.1491v1.8682l.3453-.4553c.9325-1.058 2.0565-1.5793 3.3752-1.5699 1.4223.0409 2.6217.6657 3.595 1.8682 1.0047 1.193 1.507 2.6373 1.507 4.3328 0 1.6954-.5023 3.1334-1.507 4.3171-1.0047 1.1617-2.2198 1.774-3.642 1.8367-1.3407.0628-2.5652-.4615-3.6735-1.5698v6.9545h-3.0613V40.259l-1.4756-.471.3296-1.3344zm2.9513 2.0409c-.807 0-1.4851.4018-2.0408 1.2087-.5872.7756-.8791 1.7332-.8791 2.8729 0 1.1083.2825 2.066.8477 2.8728.5557.7944 1.2339 1.1931 2.0408 1.1931.7943 0 1.485-.3862 2.0722-1.1617.5557-.8069.832-1.774.832-2.9042 0-1.1209-.2763-2.0785-.832-2.8729-.5651-.8069-1.2465-1.2087-2.0408-1.2087zm-15.3061.675c-1.256-.0094-2.5379.3548-3.8462 1.0989v-2.3077c1.4653-.5118 2.946-.7692 4.4427-.7692.963 0 1.7802.1099 2.449.3296.7315.292 1.2967.697 1.6954 1.2088.4176.493.6343 1.281.6437 2.3705v5.683c-.0094.4175.0628.744.2198.9732.157.2606.4238.449.8006.5652l.471.0314v1.7425l-1.6955.2355c-.628-.0094-1.1397-.1162-1.5385-.314-.4301-.179-.7755-.5431-1.036-1.0989l-.3297.3768c-.785.7315-1.91 1.077-3.3752 1.0361-1.2977-.0094-2.292-.4239-2.9828-1.2402-.5548-.65-.832-1.507-.832-2.5746 0-1.1617.492-2.1413 1.4757-2.9356.9733-.8477 2.5745-1.2716 4.8037-1.2716h.9733V43.069c.0409-.6907-.182-1.193-.675-1.507-.4185-.2732-.9733-.402-1.664-.3925zm.6279 8.9168c1.3595-.471 1.931-1.7834 1.7111-3.9404-1.0464-.2103-1.9726-.157-2.7786.157s-1.2977.807-1.4757 1.4757c-.1045.3987-.0888.7912.0471 1.1774.1046.3454.3036.6342.5966.8634.3767.2418.7902.361 1.2402.361z"/></svg>